<?xml version="1.0" standalone="no"?>
<!DOCTYPE svg PUBLIC "-//W3C//DTD SVG 20010904//EN"
 "http://www.w3.org/TR/2001/REC-SVG-20010904/DTD/svg10.dtd">
<svg version="1.0" xmlns="http://www.w3.org/2000/svg"
 width="3544.000000pt" height="3544.000000pt" viewBox="0 0 3544.000000 3544.000000"
 preserveAspectRatio="xMidYMid meet">

<g transform="translate(0.000000,3544.000000) scale(0.100000,-0.100000)"
fill="#000000" stroke="none">
<path d="M7945 30049 c-1993 -139 -3847 -1143 -5196 -2813 -806 -1000 -1397
-2203 -1718 -3501 -391 -1585 -372 -3275 54 -4850 363 -1342 1008 -2553 1901
-3575 149 -171 550 -572 715 -715 1069 -932 2265 -1513 3568 -1735 1150 -195
2372 -85 3461 312 898 328 1663 788 2425 1462 82 72 514 501 596 591 371 410
680 829 1019 1385 289 472 595 1144 795 1742 264 792 405 1499 475 2388 18
220 24 889 11 1140 -68 1327 -378 2550 -935 3695 -274 562 -559 1019 -976
1565 -64 83 -265 326 -290 350 -3 3 -43 48 -89 100 -103 115 -458 474 -545
550 -34 30 -100 88 -147 129 -116 101 -121 106 -235 197 -434 349 -860 621
-1354 868 -836 416 -1700 652 -2630 716 -169 11 -731 11 -905 -1z m815 -519
c868 -53 1652 -259 2440 -641 586 -284 1154 -671 1644 -1119 82 -74 425 -417
507 -505 67 -72 263 -303 340 -400 861 -1083 1452 -2410 1704 -3830 156 -881
184 -1760 84 -2660 -233 -2102 -1204 -4040 -2685 -5361 -395 -353 -809 -649
-1264 -904 -189 -106 -549 -277 -750 -357 -621 -247 -1181 -382 -1855 -445
-183 -17 -852 -17 -1035 0 -932 88 -1767 341 -2562 778 -767 420 -1469 1000
-2064 1704 -241 285 -478 612 -693 959 -888 1429 -1348 3189 -1291 4938 41
1253 294 2351 805 3488 44 98 202 412 267 529 597 1081 1374 1962 2318 2628
1004 709 2166 1124 3350 1197 197 12 550 12 740 1z"/>
<path d="M5631 27349 c-641 -138 -1048 -753 -925 -1399 29 -155 86 -291 180
-432 414 -622 1297 -710 1829 -183 169 167 276 363 332 607 23 102 23 374 0
476 -89 388 -340 700 -687 853 -158 71 -259 91 -460 95 -147 3 -190 0 -269
-17z"/>
<path d="M8250 25174 c-36 -7 -107 -34 -158 -59 -163 -81 -289 -229 -349 -410
-34 -103 -38 -282 -9 -385 67 -244 254 -431 497 -497 88 -24 272 -24 354 1
141 42 280 133 361 234 59 74 118 198 138 289 68 307 -85 629 -364 767 -52 25
-126 53 -165 61 -87 18 -219 18 -305 -1z"/>
<path d="M6403 23146 c-403 -77 -719 -370 -825 -764 -26 -99 -36 -325 -18
-426 89 -505 512 -866 1015 -866 227 0 404 53 590 175 78 52 221 194 274 273
256 381 236 881 -49 1235 -141 176 -333 299 -556 358 -103 27 -328 35 -431 15z"/>
<path d="M9520 21074 c-591 -69 -1028 -247 -1445 -589 -122 -101 -318 -300
-407 -415 -509 -657 -681 -1518 -463 -2315 124 -453 365 -859 706 -1191 207
-201 413 -347 664 -469 364 -178 686 -258 1090 -272 626 -20 1224 179 1725
575 116 92 311 287 403 402 320 401 516 880 568 1388 15 149 6 522 -16 662
-118 745 -539 1395 -1170 1808 -310 203 -658 334 -1052 398 -94 15 -519 28
-603 18z"/>
<path d="M5456 16765 c-181 -50 -330 -194 -387 -375 -29 -89 -29 -231 0 -320
74 -235 285 -390 531 -390 354 0 618 336 534 679 -48 196 -205 355 -400 406
-71 18 -211 18 -278 0z"/>
<path d="M19160 21059 c-534 -68 -975 -405 -1139 -872 -106 -302 -103 -590 9
-824 110 -231 302 -404 660 -594 512 -270 608 -360 618 -579 8 -191 -63 -377
-190 -495 -145 -134 -332 -195 -603 -195 -308 0 -612 73 -872 210 l-112 59
-10 -52 c-16 -81 -101 -550 -101 -559 0 -11 128 -74 220 -108 209 -77 459
-120 746 -127 379 -10 639 34 891 152 357 167 599 498 683 934 63 322 22 574
-124 771 -114 154 -327 316 -621 470 -157 82 -316 173 -386 220 -71 49 -159
144 -190 206 -22 44 -24 61 -24 174 1 110 4 134 28 205 65 185 197 315 386
381 311 108 793 40 1113 -156 34 -21 50 -26 53 -18 13 42 105 573 101 584 -12
33 -266 138 -421 175 -182 43 -530 62 -715 38z"/>
<path d="M21766 20973 c-3 -10 -28 -144 -55 -298 -90 -501 -660 -3629 -666
-3652 l-5 -23 309 0 309 0 10 48 c6 26 77 417 159 869 l148 823 828 0 829 0
-6 -27 c-11 -51 -294 -1617 -301 -1665 l-7 -48 305 0 305 0 6 28 c3 15 87 475
186 1022 100 547 259 1426 355 1953 96 527 175 964 175 972 0 13 -43 15 -305
15 -168 0 -305 -2 -305 -5 0 -3 -67 -372 -150 -821 -82 -448 -150 -819 -150
-824 0 -6 -304 -10 -830 -10 l-830 0 5 23 c3 12 71 378 150 812 80 435 147
798 149 808 4 16 -16 17 -304 17 -285 0 -309 -1 -314 -17z"/>
<path d="M26006 20973 c-3 -10 -28 -144 -55 -298 -90 -501 -660 -3629 -666
-3652 l-5 -23 309 0 310 0 10 53 c10 48 93 506 547 2997 90 498 166 913 168
923 4 16 -16 17 -304 17 -285 0 -309 -1 -314 -17z"/>
<path d="M27986 20973 c-3 -10 -50 -268 -105 -573 -157 -870 -610 -3353 -616
-3377 l-5 -23 309 0 c286 0 309 1 313 18 3 9 117 634 254 1389 137 755 252
1369 256 1365 4 -4 58 -137 121 -297 63 -159 144 -364 180 -455 36 -91 176
-446 312 -790 136 -344 301 -761 367 -927 l119 -303 292 0 292 0 108 593 c112
616 603 3308 613 3365 l6 32 -311 0 c-193 0 -311 -4 -311 -10 0 -8 -483 -2667
-496 -2733 -3 -16 -10 -25 -14 -20 -5 4 -77 181 -161 393 -245 620 -443 1121
-654 1655 -109 275 -217 547 -239 605 l-42 105 -291 3 c-271 2 -292 1 -297
-15z"/>
<path d="M32156 20973 c-3 -10 -50 -268 -105 -573 -168 -926 -610 -3353 -616
-3377 l-5 -23 1159 0 1160 0 6 33 c3 17 27 151 53 297 l48 265 -848 3 c-466 1
-848 5 -848 7 0 7 176 966 191 1043 l10 52 629 0 c590 0 629 1 634 18 3 9 25
132 51 272 25 140 47 265 50 278 l5 22 -630 0 c-394 0 -630 4 -630 10 0 10
186 1029 195 1068 l5 22 849 0 849 0 17 98 c10 53 34 188 55 300 l37 202
-1158 0 c-1094 0 -1158 -1 -1163 -17z"/>
<path d="M19427 11065 c-130 -33 -241 -115 -292 -216 -46 -90 -57 -151 -62
-361 l-6 -198 -103 0 -104 0 0 -115 0 -115 105 0 105 0 0 -600 0 -600 150 0
150 0 0 600 0 600 175 0 175 0 0 115 0 115 -175 0 -175 0 0 163 c0 89 5 182
11 207 26 117 105 170 250 170 52 0 104 -6 129 -15 23 -8 44 -15 47 -15 2 0 2
55 1 122 l-3 123 -40 14 c-59 20 -266 24 -338 6z"/>
<path d="M7395 10330 c-222 -35 -399 -143 -497 -306 -138 -226 -151 -590 -31
-829 83 -165 256 -294 464 -346 200 -50 572 -31 784 39 l50 17 3 122 3 122
-57 -20 c-119 -42 -234 -61 -410 -66 -204 -6 -299 8 -413 64 -126 61 -203 162
-218 282 l-6 51 617 0 616 0 0 125 c0 76 -6 157 -16 203 -56 271 -228 452
-499 522 -92 24 -296 34 -390 20z m276 -244 c195 -35 329 -170 346 -349 l6
-67 -477 0 -476 0 0 38 c0 21 7 63 16 93 67 225 296 336 585 285z"/>
<path d="M10895 10329 c-33 -5 -98 -20 -145 -35 -248 -76 -410 -241 -482 -491
-33 -113 -33 -343 0 -456 73 -255 231 -412 499 -494 82 -25 100 -27 283 -27
171 -1 206 2 286 22 50 13 125 40 165 61 l74 37 3 127 3 127 -49 -30 c-116
-71 -273 -110 -446 -110 -135 0 -198 11 -283 51 -172 81 -263 242 -263 464 0
260 121 430 355 501 46 14 92 18 195 18 163 -1 273 -24 392 -84 l78 -39 0 123
0 123 -62 30 c-159 78 -402 111 -603 82z"/>
<path d="M12598 10325 c-92 -13 -209 -41 -270 -64 l-28 -11 0 -120 c0 -66 3
-120 6 -120 4 0 37 11 74 24 185 67 439 82 602 36 119 -34 193 -140 204 -292
l7 -88 -66 30 c-189 85 -455 112 -641 64 -183 -47 -306 -166 -347 -334 -19
-78 -16 -223 6 -290 29 -89 55 -132 114 -190 103 -100 245 -150 427 -150 196
0 355 52 472 155 l52 47 0 -81 0 -81 135 0 135 0 0 498 c0 538 -3 565 -56 679
-15 30 -53 84 -87 119 -70 76 -175 131 -297 159 -101 23 -319 28 -442 10z
m367 -769 c33 -9 97 -35 143 -57 l82 -42 0 -97 0 -98 -39 -49 c-79 -101 -198
-153 -361 -161 -185 -8 -288 32 -340 133 -34 66 -35 189 -3 250 36 68 97 114
180 135 56 14 268 5 338 -14z"/>
<path d="M16078 10329 c-349 -51 -556 -261 -606 -617 -13 -95 -14 -133 -5
-227 35 -347 218 -554 568 -642 55 -14 112 -18 275 -18 215 0 345 18 480 63
l55 19 3 116 c2 75 -1 117 -8 117 -5 0 -49 -11 -97 -25 -132 -39 -253 -55
-406 -55 -160 0 -262 17 -356 61 -140 65 -207 152 -235 307 l-5 32 619 0 620
0 0 119 c0 309 -107 527 -321 654 -148 87 -379 126 -581 96z m272 -243 c197
-35 330 -173 347 -358 l6 -58 -482 0 -481 0 6 43 c16 113 44 175 107 244 111
121 287 166 497 129z"/>
<path d="M20795 10329 c-302 -44 -533 -233 -614 -504 -46 -154 -45 -359 3
-511 74 -235 249 -396 507 -466 73 -20 106 -23 259 -22 203 0 277 16 420 86
106 53 228 169 282 268 130 238 130 553 1 788 -47 85 -150 192 -237 247 -163
101 -403 145 -621 114z m255 -240 c183 -29 327 -162 375 -344 9 -35 15 -102
15 -165 0 -170 -44 -291 -141 -388 -93 -93 -200 -132 -360 -132 -157 0 -260
41 -356 142 -95 102 -133 209 -132 378 0 127 21 214 69 294 103 172 301 252
530 215z"/>
<path d="M27625 10329 c-302 -44 -532 -233 -614 -504 -63 -208 -35 -486 67
-654 102 -169 242 -269 459 -327 104 -29 388 -26 498 4 141 39 239 95 335 192
91 90 132 157 168 270 71 219 50 467 -55 658 -47 85 -150 192 -237 247 -163
101 -403 145 -621 114z m255 -240 c183 -29 327 -162 375 -344 18 -70 20 -240
4 -317 -24 -114 -109 -237 -208 -300 -144 -91 -393 -93 -543 -5 -96 56 -182
174 -213 294 -18 67 -20 229 -4 305 55 265 295 414 589 367z"/>
<path d="M4189 10263 c7 -22 221 -699 414 -1305 l31 -98 143 0 142 0 30 98
c16 53 89 290 161 526 71 236 132 431 134 434 5 5 14 -22 191 -605 l138 -453
141 0 141 0 224 703 c123 386 226 708 229 715 3 10 -28 12 -148 10 l-153 -3
-156 -522 c-85 -288 -158 -519 -161 -515 -5 6 -70 224 -297 995 l-14 47 -134
0 -134 0 -25 -82 c-13 -46 -82 -276 -151 -513 -70 -236 -130 -436 -134 -443
-4 -6 -77 223 -163 510 l-155 523 -151 3 -151 3 8 -28z"/>
<path d="M14140 9575 l0 -715 150 0 150 0 0 448 0 447 30 52 c83 145 251 229
498 249 l82 7 0 115 0 115 -102 -6 c-115 -7 -252 -42 -332 -85 -28 -15 -81
-56 -118 -91 l-68 -63 0 121 0 121 -145 0 -145 0 0 -715z"/>
<path d="M22370 9575 l0 -715 145 0 145 0 0 448 0 447 29 50 c82 144 256 231
497 251 l84 7 0 115 0 115 -102 -6 c-190 -11 -341 -70 -447 -173 -36 -35 -67
-64 -68 -64 -2 0 -3 54 -3 120 l0 120 -140 0 -140 0 0 -715z"/>
<path d="M25159 10273 c23 -45 604 -1369 604 -1378 0 -21 -96 -236 -125 -279
-43 -66 -103 -98 -192 -104 -66 -4 -142 5 -189 24 -16 6 -17 -2 -15 -112 l3
-119 50 -14 c78 -21 307 -20 376 1 127 40 240 149 314 303 31 65 675 1677 675
1690 0 3 -68 4 -151 3 l-151 -3 -38 -95 c-254 -645 -394 -990 -398 -985 -5 4
-80 180 -379 883 l-86 202 -154 0 c-143 0 -153 -1 -144 -17z"/>
<path d="M29183 9773 c3 -459 5 -525 21 -578 77 -260 270 -384 581 -372 196 7
331 63 453 187 l52 54 0 -102 0 -102 140 0 140 0 0 715 0 715 -145 0 -145 0 0
-481 0 -480 -29 -42 c-50 -73 -136 -146 -218 -185 l-78 -37 -135 0 c-127 0
-138 2 -185 27 -63 33 -98 70 -127 133 -23 50 -23 52 -26 558 l-3 507 -150 0
-150 0 4 -517z"/>
<path d="M16315 6796 c-146 -48 -239 -135 -289 -268 -89 -237 6 -500 217 -598
183 -86 410 -51 542 84 109 112 154 271 122 430 -32 154 -109 256 -244 323
-72 35 -80 37 -191 40 -77 1 -131 -2 -157 -11z m278 -124 c64 -29 132 -95 164
-161 25 -50 28 -67 28 -161 0 -93 -3 -112 -27 -162 -57 -122 -163 -188 -303
-188 -100 0 -174 28 -236 90 -75 75 -93 124 -94 255 0 92 4 118 22 157 41 90
130 164 227 189 50 13 170 3 219 -19z"/>
<path d="M17299 6792 c-70 -29 -107 -61 -135 -119 -22 -45 -26 -63 -22 -118 7
-115 68 -174 267 -260 143 -63 176 -94 176 -170 0 -102 -73 -142 -238 -132
-55 3 -116 13 -151 26 -33 12 -61 21 -63 21 -1 0 -3 -24 -3 -54 0 -49 2 -54
28 -64 102 -40 295 -50 392 -20 110 34 170 116 170 232 -1 108 -55 172 -205
241 -165 77 -185 89 -216 123 -54 61 -34 147 44 189 58 32 218 20 320 -22 15
-6 17 -1 17 48 l0 55 -47 17 c-74 27 -274 31 -334 7z"/>
<path d="M22772 6792 c-95 -34 -161 -120 -162 -211 0 -113 59 -189 198 -253
237 -108 252 -121 252 -205 0 -55 -44 -108 -103 -124 -61 -16 -219 -6 -291 20
-33 12 -61 21 -63 21 -1 0 -3 -24 -3 -54 0 -49 2 -54 28 -64 105 -41 307 -50
400 -18 103 35 161 113 162 215 0 134 -37 177 -244 276 -183 87 -211 113 -204
187 5 52 25 80 73 106 44 24 191 21 273 -6 l62 -20 0 53 0 53 -47 17 c-75 27
-263 31 -331 7z"/>
<path d="M10259 6348 l127 -443 60 -3 60 -3 93 328 c79 278 111 375 111 340 0
-6 102 -362 171 -599 l20 -68 59 0 c47 0 60 3 64 18 23 77 236 823 241 845 l7
27 -63 0 -64 0 -17 -58 c-9 -31 -51 -178 -94 -327 -42 -148 -80 -273 -84 -278
-3 -4 -49 142 -101 325 l-94 333 -50 3 -51 3 -93 -328 c-51 -180 -96 -331
-100 -336 -4 -4 -50 143 -102 325 l-96 333 -65 3 -66 3 127 -443z"/>
<path d="M11510 6779 c0 -10 213 -757 241 -846 10 -32 12 -33 69 -33 46 0 59
3 63 18 76 271 181 631 187 641 5 10 15 -8 28 -55 11 -38 55 -190 98 -337 l77
-268 60 3 60 3 123 430 c68 237 123 436 124 443 0 10 -16 12 -62 10 l-62 -3
-96 -332 c-52 -183 -97 -333 -100 -333 -3 0 -48 151 -100 335 l-94 335 -51 0
-50 0 -95 -334 c-52 -184 -97 -332 -100 -330 -3 3 -48 152 -100 332 l-95 327
-62 3 c-43 2 -63 -1 -63 -9z"/>
<path d="M12880 6785 c0 -5 208 -735 246 -867 4 -15 17 -18 64 -18 l59 0 20
68 c11 37 52 180 91 317 39 138 73 258 76 269 4 10 9 14 13 10 4 -5 50 -157
102 -337 l94 -328 59 3 60 3 108 375 c59 206 116 406 127 443 l20 68 -66 -3
-65 -3 -64 -220 c-35 -121 -78 -271 -95 -333 -18 -62 -35 -109 -39 -105 -6 7
-48 152 -187 646 -4 15 -14 17 -56 15 l-51 -3 -95 -333 c-51 -183 -97 -330
-101 -325 -6 7 -177 589 -188 641 -4 20 -10 22 -68 22 -35 0 -64 -2 -64 -5z"/>
<path d="M14650 6345 l0 -445 228 0 c254 0 301 8 364 60 55 45 82 110 82 195
0 101 -42 171 -117 198 -14 5 -10 13 26 50 42 41 67 100 67 156 0 54 -24 125
-53 158 -60 68 -82 73 -354 73 l-243 0 0 -445z m487 313 c35 -35 45 -134 19
-183 -32 -58 -56 -65 -230 -65 l-156 0 0 141 0 140 170 -3 c169 -3 170 -3 197
-30z m5 -376 c41 -25 58 -63 58 -129 0 -61 -22 -108 -62 -130 -27 -15 -62 -18
-200 -21 l-168 -4 0 149 c0 83 3 153 8 157 4 4 79 6 167 4 146 -3 163 -5 197
-26z"/>
<path d="M15600 6345 l0 -445 60 0 60 0 0 445 0 445 -60 0 -60 0 0 -445z"/>
<path d="M17990 6345 l0 -445 60 0 60 0 0 200 0 200 235 0 235 0 0 -200 0
-200 60 0 60 0 0 445 0 445 -60 0 -60 0 0 -190 0 -190 -235 0 -235 0 0 190 0
190 -60 0 -60 0 0 -445z"/>
<path d="M19000 6345 l0 -445 65 0 65 0 0 445 0 445 -65 0 -65 0 0 -445z"/>
<path d="M19420 6345 l0 -445 60 0 60 0 0 335 c0 184 3 335 8 335 4 0 107
-151 229 -335 l223 -335 60 0 60 0 0 445 0 445 -65 0 -65 0 0 -336 0 -336
-222 336 -223 335 -62 1 -63 0 0 -445z"/>
<path d="M20410 6345 l0 -445 290 0 290 0 0 55 0 55 -225 0 -225 0 0 145 0
145 170 0 170 0 0 50 0 50 -170 0 -170 0 0 145 0 145 225 0 225 0 0 50 0 50
-290 0 -290 0 0 -445z"/>
<path d="M21931 6768 c-88 -226 -324 -829 -331 -845 -9 -22 -8 -23 54 -23 l64
0 44 113 44 112 195 3 195 2 45 -112 45 -113 63 -3 c58 -3 63 -1 56 15 -3 10
-24 63 -45 118 -21 55 -90 231 -153 390 -63 160 -120 307 -128 328 l-13 37
-63 0 c-57 0 -64 -2 -72 -22z m160 -341 c39 -104 69 -191 66 -193 -2 -3 -74
-3 -160 -2 l-155 3 68 180 c37 99 73 194 80 210 15 36 4 56 101 -198z"/>
<path d="M23460 6345 l0 -445 65 0 65 0 0 445 0 445 -65 0 -65 0 0 -445z"/>
<path d="M24206 6782 c-3 -5 -35 -85 -71 -178 -37 -93 -112 -284 -167 -424
-55 -140 -103 -261 -105 -267 -4 -10 12 -13 60 -13 l65 0 15 43 c8 23 27 75
42 115 l29 72 195 0 196 0 45 -115 44 -115 64 0 c47 0 63 3 59 13 -19 46 -115
289 -220 557 l-123 315 -61 3 c-34 2 -64 -1 -67 -6z m144 -333 c41 -111 77
-206 78 -210 2 -5 -69 -9 -158 -9 -126 0 -161 3 -157 13 105 284 153 407 157
407 3 0 39 -91 80 -201z"/>
<path d="M14286 6004 c-33 -32 -11 -104 32 -104 32 0 62 30 62 60 0 49 -61 78
-94 44z"/>
<path d="M21250 6000 c-27 -27 -26 -65 2 -84 44 -31 88 -9 88 44 0 55 -52 78
-90 40z"/>
</g>
</svg>
