<?xml version="1.0" standalone="no"?>
<!DOCTYPE svg PUBLIC "-//W3C//DTD SVG 20010904//EN"
 "http://www.w3.org/TR/2001/REC-SVG-20010904/DTD/svg10.dtd">
<svg version="1.0" xmlns="http://www.w3.org/2000/svg"
 width="1816.000000pt" height="922.000000pt" viewBox="0 0 1816.000000 922.000000"
 preserveAspectRatio="xMidYMid meet">

<g transform="translate(0.000000,922.000000) scale(0.100000,-0.100000)"
fill="#000000" stroke="none">
<path d="M0 4610 l0 -4610 9080 0 9080 0 0 4610 0 4610 -9080 0 -9080 0 0
-4610z m3420 2325 c35 -105 129 -218 220 -265 74 -37 141 -50 268 -51 l107 0
-60 -19 c-148 -48 -248 -189 -248 -352 l-1 -76 -37 81 c-45 95 -93 161 -154
212 -116 95 -316 137 -482 101 -35 -7 -63 -12 -63 -10 0 1 28 18 63 35 93 49
212 174 260 271 44 91 66 179 68 268 l1 65 22 -110 c13 -61 29 -128 36 -150z
m10147 115 c154 -41 240 -88 347 -189 175 -168 256 -383 256 -679 0 -386 -144
-769 -389 -1036 -109 -118 -225 -205 -367 -273 -271 -129 -643 -137 -877 -17
-196 100 -337 280 -399 509 -30 110 -32 419 -4 570 32 172 121 407 211 554 84
138 240 303 368 389 146 99 318 165 502 192 90 13 262 4 352 -20z m-3274 -35
c93 -20 151 -50 218 -115 95 -93 129 -183 129 -343 0 -54 -7 -133 -16 -175
-31 -152 -137 -309 -271 -403 -21 -15 -21 -15 37 -61 108 -87 147 -191 137
-367 -18 -322 -170 -568 -420 -681 -108 -48 -133 -50 -692 -50 l-525 0 0 23
c1 12 14 94 30 182 16 88 48 261 70 384 21 123 42 231 44 240 3 9 24 120 46
246 22 127 60 340 85 475 57 310 115 640 115 651 0 5 213 9 473 9 373 0 486
-3 540 -15z m1452 -7 c-6 -29 -65 -355 -116 -648 -21 -123 -41 -232 -44 -241
-3 -9 -24 -120 -46 -245 -49 -274 -95 -530 -143 -794 -20 -107 -38 -210 -41
-227 l-6 -33 -174 0 c-160 0 -175 1 -175 18 0 18 34 213 115 657 77 423 122
671 159 880 20 110 45 243 55 295 11 52 29 155 41 228 l23 132 179 0 178 0 -5
-22z m-7647 -385 c-10 -2 -28 -2 -40 0 -13 2 -5 4 17 4 22 1 32 -1 23 -4z
m-298 -616 c83 -91 200 -136 319 -123 l56 6 -30 -16 c-148 -81 -286 -196 -360
-300 -91 -127 -135 -256 -137 -393 0 -39 -2 -71 -3 -71 -2 0 -11 26 -21 57
-10 32 -39 89 -65 128 -100 149 -267 240 -454 246 -39 2 -42 3 -15 6 62 7 201
34 218 42 10 5 47 21 83 36 75 30 171 95 214 146 15 19 44 68 64 109 32 68 36
84 40 180 l3 104 20 -52 c11 -29 41 -75 68 -105z m-130 -1004 c0 -9 19 -58 41
-110 132 -300 356 -468 654 -492 l80 -6 -90 -29 c-211 -69 -429 -208 -583
-370 -101 -108 -161 -192 -229 -324 -31 -59 -56 -108 -57 -109 -1 -2 1 21 5
50 18 128 2 288 -39 391 -66 167 -215 312 -416 406 l-79 36 115 -4 c89 -3 128
-1 173 13 99 28 175 73 245 144 104 105 160 234 160 369 0 39 4 61 10 57 6 -3
10 -13 10 -22z m-250 -2277 c87 -396 346 -735 713 -935 81 -45 99 -59 44 -36
-18 7 -70 23 -115 34 -417 107 -713 104 -1019 -11 -63 -23 -133 -62 -205 -114
-27 -19 -48 -31 -48 -28 0 3 12 21 26 40 37 48 53 99 54 170 1 161 -110 280
-272 292 l-68 5 94 42 c91 41 222 115 266 152 176 144 286 275 372 448 32 62
95 239 115 320 4 19 10 -25 14 -125 4 -99 15 -191 29 -254z"/>
<path d="M13148 6685 c-139 -28 -310 -132 -415 -252 -174 -202 -263 -459 -263
-764 0 -302 124 -468 385 -516 279 -51 551 63 741 312 40 52 116 188 137 245
105 288 110 581 11 772 -25 48 -116 132 -177 161 -105 52 -280 70 -419 42z"/>
<path d="M9575 6678 c-6 -32 -20 -103 -60 -328 -20 -107 -38 -205 -41 -218
l-5 -24 293 4 c336 4 348 7 421 88 57 64 87 153 94 280 4 85 2 100 -19 140
-38 73 -67 79 -400 80 l-278 0 -5 -22z"/>
<path d="M9400 5708 c-6 -40 -16 -86 -21 -103 -9 -29 -79 -431 -79 -453 0 -9
75 -12 283 -12 317 0 367 7 446 63 119 84 184 371 109 485 -17 25 -45 49 -75
63 -47 23 -56 24 -350 27 l-301 3 -12 -73z"/>
</g>
</svg>
