<?xml version="1.0" standalone="no"?>
<!DOCTYPE svg PUBLIC "-//W3C//DTD SVG 20010904//EN"
 "http://www.w3.org/TR/2001/REC-SVG-20010904/DTD/svg10.dtd">
<svg version="1.0" xmlns="http://www.w3.org/2000/svg"
 width="397.000000pt" height="257.000000pt" viewBox="0 0 397.000000 257.000000"
 preserveAspectRatio="xMidYMid meet">

<g transform="translate(0.000000,257.000000) scale(0.100000,-0.100000)"
fill="#000000" stroke="none">
<path d="M825 2481 c-275 -34 -546 -259 -656 -545 -60 -156 -71 -216 -71 -391
-1 -132 3 -174 21 -242 77 -297 239 -511 476 -627 107 -53 144 -64 250 -75 84
-8 236 2 295 21 62 19 192 87 249 130 115 87 211 207 276 343 207 433 85 964
-286 1243 -151 114 -358 167 -554 143z m289 -72 c226 -55 443 -261 532 -505
89 -242 91 -467 9 -702 -24 -69 -73 -164 -87 -170 -4 -2 -8 -9 -8 -16 0 -14
-59 -94 -96 -130 -63 -62 -98 -91 -156 -127 -65 -41 -120 -69 -147 -74 -9 -2
-44 -10 -77 -19 -87 -23 -227 -21 -332 5 -83 20 -174 58 -187 79 -3 6 -21 17
-38 24 -53 24 -169 143 -229 236 -131 204 -181 471 -134 725 49 267 211 497
436 618 79 43 147 63 265 81 51 7 166 -4 249 -25z"/>
<path d="M578 2165 c-74 -50 -73 -150 0 -200 64 -43 136 -30 179 34 78 115
-63 245 -179 166z"/>
<path d="M875 1930 c-28 -31 -24 -79 10 -107 67 -58 155 40 95 105 -27 29 -80
29 -105 2z"/>
<path d="M679 1717 c-34 -13 -59 -56 -59 -102 0 -52 53 -105 105 -105 81 0
129 64 106 142 -20 64 -85 92 -152 65z"/>
<path d="M989 1486 c-214 -76 -267 -350 -96 -490 185 -152 467 -19 467 219 0
72 -39 163 -91 211 -72 65 -193 91 -280 60z"/>
<path d="M582 1018 c-5 -7 -13 -23 -16 -35 -10 -32 35 -77 67 -67 26 8 46 32
47 57 0 41 -73 75 -98 45z"/>
<path d="M2050 1476 c-49 -26 -69 -60 -70 -119 0 -44 30 -79 103 -119 50 -28
59 -60 26 -102 -19 -25 -27 -27 -78 -25 -31 1 -64 6 -74 11 -22 11 -23 10 -32
-23 -6 -23 -3 -28 26 -38 79 -27 180 -5 218 48 50 70 32 144 -44 182 -63 32
-88 60 -79 93 3 15 16 33 27 41 24 17 104 20 127 5 11 -7 17 -5 22 8 12 30 9
38 -17 50 -42 19 -106 14 -155 -12z"/>
<path d="M2396 1481 c-3 -5 -12 -53 -20 -107 -9 -55 -24 -143 -36 -198 -11
-54 -20 -102 -20 -107 0 -5 13 -9 29 -9 27 0 30 4 39 48 6 26 13 68 17 95 l7
47 94 0 c107 0 103 5 79 -95 -21 -88 -20 -95 14 -95 l29 0 31 168 c17 92 35
188 40 215 l8 47 -33 0 -32 0 -13 -90 -13 -90 -94 0 -94 0 7 38 c4 20 10 61
14 90 8 52 8 52 -20 52 -15 0 -30 -4 -33 -9z"/>
<path d="M2855 1448 c-8 -50 -62 -332 -70 -365 -5 -21 -2 -23 29 -23 34 0 35
1 41 48 4 26 20 116 36 199 16 84 29 159 29 168 0 10 -10 15 -29 15 -27 0 -30
-4 -36 -42z"/>
<path d="M3077 1468 c-9 -37 -44 -227 -57 -308 -7 -41 -15 -81 -18 -88 -3 -10
4 -13 29 -10 l33 3 17 85 c9 47 20 114 24 148 4 34 10 62 13 62 7 0 28 -50 93
-218 31 -81 33 -83 63 -80 35 3 32 -6 72 228 13 80 27 157 30 173 5 25 3 27
-24 27 -34 0 -35 -2 -69 -198 -20 -111 -24 -109 -78 33 -61 161 -64 165 -95
165 -21 0 -29 -6 -33 -22z"/>
<path d="M3525 1433 c-4 -32 -20 -125 -36 -208 -16 -82 -29 -153 -29 -157 0
-5 56 -8 124 -8 l124 0 4 30 5 30 -94 0 c-85 0 -94 2 -89 18 2 9 8 36 11 60
l7 42 69 0 c38 0 69 3 69 8 0 4 3 17 6 30 6 21 4 22 -60 22 -74 0 -73 -2 -55
79 l11 50 91 3 92 3 3 28 3 27 -125 0 -125 0 -6 -57z"/>
<path d="M2110 381 c-5 -11 -10 -29 -10 -40 0 -12 -4 -21 -10 -21 -5 0 -10 -7
-10 -15 0 -8 5 -15 10 -15 6 0 10 -27 10 -60 0 -47 3 -60 15 -60 12 0 15 13
15 60 0 53 2 60 20 60 11 0 20 7 20 15 0 8 -9 15 -21 15 -30 0 -23 54 9 58 33
5 27 22 -8 22 -19 0 -33 -7 -40 -19z"/>
<path d="M474 303 c3 -10 12 -44 21 -75 13 -44 21 -58 35 -58 14 0 23 12 31
43 18 63 25 64 39 7 10 -43 16 -51 33 -48 16 2 25 19 43 76 19 62 20 73 7 70
-9 -2 -23 -27 -33 -58 l-17 -55 -12 30 c-7 17 -15 42 -18 58 -9 43 -31 31 -49
-28 -10 -30 -21 -52 -25 -50 -4 3 -13 28 -20 55 -8 30 -18 50 -27 50 -8 0 -11
-7 -8 -17z"/>
<path d="M771 294 c-26 -33 -27 -75 -2 -105 15 -19 28 -23 71 -24 29 0 55 5
57 10 2 7 -12 9 -37 7 -29 -3 -47 1 -60 13 -32 29 -24 35 45 35 65 0 65 0 65
28 0 40 -28 62 -78 62 -32 0 -45 -6 -61 -26z m101 -11 c29 -26 21 -33 -37 -33
-59 0 -64 4 -38 32 20 22 51 23 75 1z"/>
<path d="M1155 300 c-29 -32 -26 -97 4 -121 28 -23 79 -25 107 -5 17 13 15 14
-24 9 -32 -4 -47 -1 -62 12 -46 41 -6 112 57 102 24 -4 33 -2 30 6 -2 7 -24
13 -48 15 -36 2 -49 -2 -64 -18z"/>
<path d="M1360 306 c0 -11 8 -13 33 -9 24 4 37 0 51 -16 l19 -21 -49 0 c-57 0
-74 -12 -74 -52 0 -38 29 -51 91 -43 l49 7 0 55 c0 79 -10 93 -70 93 -37 0
-50 -4 -50 -14z m84 -72 c36 -14 4 -54 -44 -54 -23 0 -35 21 -26 45 5 15 42
20 70 9z"/>
<path d="M1560 245 c0 -60 3 -75 15 -75 11 0 15 12 15 51 0 47 2 52 30 62 17
6 30 18 30 25 0 9 -6 12 -15 8 -8 -3 -22 -9 -30 -12 -8 -3 -15 -1 -15 5 0 6
-7 11 -15 11 -12 0 -15 -15 -15 -75z"/>
<path d="M1726 298 c-20 -28 -21 -88 -2 -113 10 -14 27 -19 66 -20 29 0 55 5
57 10 2 7 -12 9 -37 7 -39 -4 -80 16 -80 40 0 4 32 8 70 8 62 0 70 2 70 19 0
10 -9 30 -21 45 -28 35 -100 38 -123 4z m96 -15 c29 -26 21 -33 -37 -33 -59 0
-64 4 -38 32 20 22 51 23 75 1z"/>
<path d="M2242 297 c-14 -15 -22 -36 -22 -58 0 -40 7 -52 37 -68 86 -45 171
47 112 123 -28 35 -95 37 -127 3z m96 -13 c41 -28 18 -104 -31 -104 -53 0 -77
75 -35 104 12 9 27 16 33 16 6 0 21 -7 33 -16z"/>
<path d="M2460 245 c0 -60 3 -75 15 -75 11 0 15 11 15 43 0 46 21 77 53 77 9
0 17 7 17 15 0 19 -20 19 -48 -1 -20 -14 -22 -14 -22 0 0 9 -7 16 -15 16 -12
0 -15 -15 -15 -75z"/>
<path d="M2776 298 c3 -13 18 -45 31 -71 28 -57 27 -88 -4 -102 -13 -5 -23
-13 -23 -17 0 -13 58 -9 67 5 7 11 83 198 83 205 0 2 -7 2 -17 0 -9 -2 -25
-27 -38 -62 l-22 -60 -28 62 c-15 34 -34 62 -42 62 -10 0 -12 -6 -7 -22z"/>
<path d="M2992 297 c-14 -15 -22 -36 -22 -58 0 -40 7 -52 37 -68 86 -45 171
47 112 123 -28 35 -95 37 -127 3z m98 -17 c53 -53 -16 -134 -72 -83 -22 20
-23 61 -1 85 21 24 48 23 73 -2z"/>
<path d="M3210 256 c0 -80 16 -101 69 -92 20 4 46 6 59 6 21 0 22 4 22 75 0
60 -3 75 -15 75 -12 0 -15 -13 -15 -60 0 -55 -2 -61 -26 -72 -42 -20 -59 -1
-62 71 -2 45 -7 61 -17 61 -12 0 -15 -15 -15 -64z"/>
</g>
</svg>
